<svg xmlns="http://www.w3.org/2000/svg" viewBox="0 0 100 100" width="512" height="512" role="img" aria-label="nashishei mark">
  <g fill="none" stroke="currentColor" stroke-width="7" stroke-linecap="round" stroke-linejoin="round">
    <path d="M16 34 L16 16 L34 16"/>
    <path d="M66 16 L84 16 L84 34"/>
    <path d="M16 66 L16 84 L34 84"/>
    <path d="M66 84 L84 84 L84 66"/>
  </g>
  <path transform="translate(33.702 74.888) scale(0.03153 -0.03153)" fill="currentColor" d="M402.1961669921875 610.899169921875 411.595947265625 440.39520263671875Q414.89581298828125 422.29559326171875 425.195556640625 412.6958312988281Q435.49530029296875 403.0960693359375 452.0948486328125 403.0960693359375Q467.99444580078125 403.0960693359375 477.8941955566406 410.99591064453125Q487.7939453125 418.895751953125 495.89361572265625 440.59515380859375L508.09326171875 593.5995483398438Q512.193115234375 619.0994262695312 523.9429626464844 633.5494079589844Q535.6928100585938 647.9993896484375 558.1926879882812 654.3995971679688L610.9921875 668.4000244140625Q787.591064453125 718.901611328125 877.6903686523438 823.0017700195312Q967.7896728515625 927.1019287109375 967.7896728515625 1080.4015502929688Q967.7896728515625 1254.0005493164062 850.0911254882812 1346.7502746582031Q732.392578125 1439.5 515.6958618164062 1439.5Q384.69744873046875 1439.5 283.0486755371094 1395.5002136230469Q181.39990234375 1351.5004272460938 123.70059204101562 1278.7508239746094Q66.00128173828125 1206.001220703125 66.00128173828125 1119.3017578125Q66.00128173828125 1046.103759765625 103.60015869140625 1005.2548217773438Q141.19903564453125 964.4058837890625 203.1971435546875 964.6058959960938Q270.99505615234375 964.805908203125 307.49395751953125 1008.9546203613281Q343.99285888671875 1053.1033325195312 343.69287109375 1133.700927734375L343.39288330078125 1218.3995971679688Q343.0928955078125 1288.500244140625 382.9436950683594 1330.3509216308594Q422.79449462890625 1372.2015991210938 501.1964111328125 1372.2015991210938Q574.8977661132812 1372.2015991210938 618.4487915039062 1309.0011596679688Q661.9998168945312 1245.8007202148438 661.9998168945312 1119.8997802734375Q661.9998168945312 968.500244140625 621.3988952636719 879.0996704101562Q580.7979736328125 789.6990966796875 494.296142578125 736.9981079101562L446.39593505859375 706.8980712890625Q419.19610595703125 689.3982543945312 408.6462097167969 665.7985534667969Q398.0963134765625 642.1988525390625 402.1961669921875 610.899169921875ZM446.39495849609375 -19.399658203125Q404.0960693359375 -19.399658203125 370.2469482421875 1.899810791015625Q336.3978271484375 23.19927978515625 316.54833984375 58.698394775390625Q296.6988525390625 94.197509765625 296.6988525390625 136.79644775390625Q296.6988525390625 179.79541015625 316.6483459472656 214.7945556640625Q336.59783935546875 249.793701171875 370.5469665527344 270.5431823730469Q404.49609375 291.29266357421875 446.39495849609375 291.29266357421875Q490.09381103515625 291.29266357421875 524.242919921875 270.44317626953125Q558.3920288085938 249.59368896484375 578.1415100097656 214.69454956054688Q597.8909912109375 179.79541015625 597.8909912109375 136.79644775390625Q597.8909912109375 94.197509765625 578.04150390625 58.698394775390625Q558.1920166015625 23.19927978515625 524.1429138183594 1.899810791015625Q490.09381103515625 -19.399658203125 446.39495849609375 -19.399658203125Z"/>
</svg>